<mxfile host="app.diagrams.net" modified="2023-11-03T18:22:06.951Z" agent="Mozilla/5.0 (Windows NT 10.0; Win64; x64) AppleWebKit/537.36 (KHTML, like Gecko) Chrome/119.0.0.0 Safari/537.36" etag="zWoR60_xHLUfZGvz1rSt" version="21.8.2" type="github">
  <diagram name="Page-1" id="q8DDtiyLQRSobtQ3qk2a">
    <mxGraphModel dx="1644" dy="432" grid="1" gridSize="10" guides="1" tooltips="1" connect="1" arrows="1" fold="1" page="1" pageScale="1" pageWidth="850" pageHeight="1100" math="0" shadow="0">
      <root>
        <mxCell id="0" />
        <mxCell id="1" parent="0" />
        <mxCell id="BnajCfSw2i4muXMbBNT6-6" style="edgeStyle=orthogonalEdgeStyle;rounded=0;orthogonalLoop=1;jettySize=auto;html=1;exitX=1;exitY=0.25;exitDx=0;exitDy=0;entryX=0;entryY=0.5;entryDx=0;entryDy=0;" edge="1" parent="1" source="BnajCfSw2i4muXMbBNT6-1" target="BnajCfSw2i4muXMbBNT6-2">
          <mxGeometry relative="1" as="geometry" />
        </mxCell>
        <mxCell id="BnajCfSw2i4muXMbBNT6-7" style="edgeStyle=orthogonalEdgeStyle;rounded=0;orthogonalLoop=1;jettySize=auto;html=1;exitX=1;exitY=0.75;exitDx=0;exitDy=0;entryX=0;entryY=0.5;entryDx=0;entryDy=0;" edge="1" parent="1" source="BnajCfSw2i4muXMbBNT6-1" target="BnajCfSw2i4muXMbBNT6-3">
          <mxGeometry relative="1" as="geometry" />
        </mxCell>
        <mxCell id="BnajCfSw2i4muXMbBNT6-1" value="Selection" style="rounded=0;whiteSpace=wrap;html=1;" vertex="1" parent="1">
          <mxGeometry x="70" y="260" width="120" height="60" as="geometry" />
        </mxCell>
        <mxCell id="BnajCfSw2i4muXMbBNT6-2" value="Login" style="rounded=0;whiteSpace=wrap;html=1;" vertex="1" parent="1">
          <mxGeometry x="240" y="200" width="120" height="60" as="geometry" />
        </mxCell>
        <mxCell id="BnajCfSw2i4muXMbBNT6-5" style="edgeStyle=orthogonalEdgeStyle;rounded=0;orthogonalLoop=1;jettySize=auto;html=1;exitX=1;exitY=0.5;exitDx=0;exitDy=0;entryX=0;entryY=0.5;entryDx=0;entryDy=0;" edge="1" parent="1" source="BnajCfSw2i4muXMbBNT6-4" target="BnajCfSw2i4muXMbBNT6-1">
          <mxGeometry relative="1" as="geometry" />
        </mxCell>
        <mxCell id="BnajCfSw2i4muXMbBNT6-4" value="Booted" style="rounded=0;whiteSpace=wrap;html=1;" vertex="1" parent="1">
          <mxGeometry x="-80" y="260" width="120" height="60" as="geometry" />
        </mxCell>
        <mxCell id="BnajCfSw2i4muXMbBNT6-8" value="" style="endArrow=none;dashed=1;html=1;dashPattern=1 3;strokeWidth=2;rounded=0;" edge="1" parent="1" source="BnajCfSw2i4muXMbBNT6-3">
          <mxGeometry width="50" height="50" relative="1" as="geometry">
            <mxPoint x="300" y="390" as="sourcePoint" />
            <mxPoint x="350" y="340" as="targetPoint" />
          </mxGeometry>
        </mxCell>
        <mxCell id="BnajCfSw2i4muXMbBNT6-9" value="" style="endArrow=none;dashed=1;html=1;dashPattern=1 3;strokeWidth=2;rounded=0;" edge="1" parent="1">
          <mxGeometry width="50" height="50" relative="1" as="geometry">
            <mxPoint x="-80" y="440" as="sourcePoint" />
            <mxPoint x="810" y="440" as="targetPoint" />
          </mxGeometry>
        </mxCell>
        <mxCell id="BnajCfSw2i4muXMbBNT6-11" value="Hard" style="edgeLabel;html=1;align=center;verticalAlign=middle;resizable=0;points=[];" vertex="1" connectable="0" parent="BnajCfSw2i4muXMbBNT6-9">
          <mxGeometry x="0.0674" y="-8" relative="1" as="geometry">
            <mxPoint x="3" y="9" as="offset" />
          </mxGeometry>
        </mxCell>
        <mxCell id="BnajCfSw2i4muXMbBNT6-10" value="" style="endArrow=none;dashed=1;html=1;dashPattern=1 3;strokeWidth=2;rounded=0;" edge="1" parent="1" target="BnajCfSw2i4muXMbBNT6-3">
          <mxGeometry width="50" height="50" relative="1" as="geometry">
            <mxPoint x="300" y="390" as="sourcePoint" />
            <mxPoint x="350" y="340" as="targetPoint" />
          </mxGeometry>
        </mxCell>
        <mxCell id="BnajCfSw2i4muXMbBNT6-3" value="Signup" style="rounded=0;whiteSpace=wrap;html=1;" vertex="1" parent="1">
          <mxGeometry x="240" y="320" width="120" height="60" as="geometry" />
        </mxCell>
        <mxCell id="BnajCfSw2i4muXMbBNT6-12" value="Soft" style="text;html=1;align=center;verticalAlign=middle;resizable=0;points=[];autosize=1;strokeColor=none;fillColor=none;" vertex="1" parent="1">
          <mxGeometry x="377" y="408" width="40" height="30" as="geometry" />
        </mxCell>
        <mxCell id="BnajCfSw2i4muXMbBNT6-17" style="edgeStyle=orthogonalEdgeStyle;rounded=0;orthogonalLoop=1;jettySize=auto;html=1;exitX=0.25;exitY=0;exitDx=0;exitDy=0;entryX=0.5;entryY=1;entryDx=0;entryDy=0;" edge="1" parent="1" source="BnajCfSw2i4muXMbBNT6-15" target="BnajCfSw2i4muXMbBNT6-4">
          <mxGeometry relative="1" as="geometry" />
        </mxCell>
        <mxCell id="BnajCfSw2i4muXMbBNT6-15" value="Server" style="rounded=0;whiteSpace=wrap;html=1;" vertex="1" parent="1">
          <mxGeometry x="-10" y="480" width="120" height="60" as="geometry" />
        </mxCell>
        <mxCell id="BnajCfSw2i4muXMbBNT6-21" value="" style="group" vertex="1" connectable="0" parent="1">
          <mxGeometry x="240" y="480" width="60" height="112" as="geometry" />
        </mxCell>
        <mxCell id="BnajCfSw2i4muXMbBNT6-18" value="Login Notice" style="shape=cylinder3;whiteSpace=wrap;html=1;boundedLbl=1;backgroundOutline=1;size=15;" vertex="1" parent="BnajCfSw2i4muXMbBNT6-21">
          <mxGeometry y="62" width="60" height="50" as="geometry" />
        </mxCell>
        <mxCell id="BnajCfSw2i4muXMbBNT6-19" value="Passwords" style="shape=cylinder3;whiteSpace=wrap;html=1;boundedLbl=1;backgroundOutline=1;size=15;" vertex="1" parent="BnajCfSw2i4muXMbBNT6-21">
          <mxGeometry y="32" width="60" height="50" as="geometry" />
        </mxCell>
        <mxCell id="BnajCfSw2i4muXMbBNT6-20" value="Username" style="shape=cylinder3;whiteSpace=wrap;html=1;boundedLbl=1;backgroundOutline=1;size=15;" vertex="1" parent="BnajCfSw2i4muXMbBNT6-21">
          <mxGeometry width="60" height="50" as="geometry" />
        </mxCell>
        <mxCell id="BnajCfSw2i4muXMbBNT6-22" style="edgeStyle=orthogonalEdgeStyle;rounded=0;orthogonalLoop=1;jettySize=auto;html=1;exitX=0.5;exitY=1;exitDx=0;exitDy=0;entryX=0.5;entryY=0;entryDx=0;entryDy=0;entryPerimeter=0;" edge="1" parent="1" source="BnajCfSw2i4muXMbBNT6-3" target="BnajCfSw2i4muXMbBNT6-20">
          <mxGeometry relative="1" as="geometry" />
        </mxCell>
        <mxCell id="BnajCfSw2i4muXMbBNT6-24" style="edgeStyle=orthogonalEdgeStyle;rounded=0;orthogonalLoop=1;jettySize=auto;html=1;exitX=1;exitY=0.5;exitDx=0;exitDy=0;exitPerimeter=0;entryX=1;entryY=0.75;entryDx=0;entryDy=0;" edge="1" parent="1" source="BnajCfSw2i4muXMbBNT6-20" target="BnajCfSw2i4muXMbBNT6-2">
          <mxGeometry relative="1" as="geometry" />
        </mxCell>
        <mxCell id="BnajCfSw2i4muXMbBNT6-25" style="edgeStyle=orthogonalEdgeStyle;rounded=0;orthogonalLoop=1;jettySize=auto;html=1;exitX=1;exitY=0.5;exitDx=0;exitDy=0;exitPerimeter=0;entryX=1;entryY=0.5;entryDx=0;entryDy=0;" edge="1" parent="1" source="BnajCfSw2i4muXMbBNT6-19" target="BnajCfSw2i4muXMbBNT6-2">
          <mxGeometry relative="1" as="geometry" />
        </mxCell>
        <mxCell id="BnajCfSw2i4muXMbBNT6-27" style="edgeStyle=orthogonalEdgeStyle;rounded=0;orthogonalLoop=1;jettySize=auto;html=1;exitX=1;exitY=0.5;exitDx=0;exitDy=0;entryX=0;entryY=0;entryDx=0;entryDy=30;entryPerimeter=0;" edge="1" parent="1" source="BnajCfSw2i4muXMbBNT6-15" target="BnajCfSw2i4muXMbBNT6-20">
          <mxGeometry relative="1" as="geometry" />
        </mxCell>
        <mxCell id="BnajCfSw2i4muXMbBNT6-28" style="edgeStyle=orthogonalEdgeStyle;rounded=0;orthogonalLoop=1;jettySize=auto;html=1;exitX=1;exitY=0.5;exitDx=0;exitDy=0;entryX=0;entryY=1;entryDx=0;entryDy=-15;entryPerimeter=0;" edge="1" parent="1" source="BnajCfSw2i4muXMbBNT6-15" target="BnajCfSw2i4muXMbBNT6-19">
          <mxGeometry relative="1" as="geometry" />
        </mxCell>
        <mxCell id="BnajCfSw2i4muXMbBNT6-29" style="edgeStyle=orthogonalEdgeStyle;rounded=0;orthogonalLoop=1;jettySize=auto;html=1;exitX=1;exitY=0.5;exitDx=0;exitDy=0;entryX=0;entryY=0;entryDx=0;entryDy=30;entryPerimeter=0;" edge="1" parent="1" source="BnajCfSw2i4muXMbBNT6-15" target="BnajCfSw2i4muXMbBNT6-18">
          <mxGeometry relative="1" as="geometry" />
        </mxCell>
        <mxCell id="BnajCfSw2i4muXMbBNT6-30" style="edgeStyle=orthogonalEdgeStyle;rounded=0;orthogonalLoop=1;jettySize=auto;html=1;exitX=0.75;exitY=1;exitDx=0;exitDy=0;entryX=0;entryY=0;entryDx=0;entryDy=20;entryPerimeter=0;" edge="1" parent="1" source="BnajCfSw2i4muXMbBNT6-3" target="BnajCfSw2i4muXMbBNT6-19">
          <mxGeometry relative="1" as="geometry" />
        </mxCell>
        <mxCell id="BnajCfSw2i4muXMbBNT6-32" style="edgeStyle=orthogonalEdgeStyle;rounded=0;orthogonalLoop=1;jettySize=auto;html=1;exitX=0.75;exitY=1;exitDx=0;exitDy=0;entryX=1;entryY=0;entryDx=0;entryDy=30;entryPerimeter=0;" edge="1" parent="1" source="BnajCfSw2i4muXMbBNT6-2" target="BnajCfSw2i4muXMbBNT6-18">
          <mxGeometry relative="1" as="geometry" />
        </mxCell>
        <mxCell id="BnajCfSw2i4muXMbBNT6-33" style="edgeStyle=orthogonalEdgeStyle;rounded=0;orthogonalLoop=1;jettySize=auto;html=1;exitX=0.75;exitY=1;exitDx=0;exitDy=0;entryX=1.011;entryY=0.84;entryDx=0;entryDy=0;entryPerimeter=0;" edge="1" parent="1" source="BnajCfSw2i4muXMbBNT6-3" target="BnajCfSw2i4muXMbBNT6-18">
          <mxGeometry relative="1" as="geometry" />
        </mxCell>
      </root>
    </mxGraphModel>
  </diagram>
</mxfile>
